<svg width="652" height="178" viewBox="0 0 652 178" fill="none" xmlns="http://www.w3.org/2000/svg">
<path d="M47.5278 51.4406C44.9959 48.6778 45.0888 44.4112 47.7387 41.7613L64.5317 24.9683C67.2726 22.2274 71.719 22.2357 74.4497 24.9868L132.675 83.6481C135.356 86.3499 135.387 90.6995 132.744 93.4393L74.5862 153.727C71.8154 156.6 67.2076 156.578 64.4642 153.679L47.4559 135.708C44.9415 133.051 44.8965 128.907 47.3526 126.196L77.2169 93.2365C79.644 90.5579 79.6324 86.4717 77.1902 83.8069L47.5278 51.4406Z" fill="#696969"/>
<path d="M117.528 51.4406C114.996 48.6778 115.089 44.4112 117.739 41.7613L134.532 24.9683C137.273 22.2274 141.719 22.2357 144.45 24.9868L202.675 83.6481C205.356 86.3499 205.387 90.6995 202.744 93.4393L144.586 153.727C141.815 156.6 137.208 156.578 134.464 153.679L117.456 135.708C114.942 133.051 114.897 128.907 117.353 126.196L147.217 93.2365C149.644 90.5579 149.632 86.4717 147.19 83.8069L117.528 51.4406Z" fill="#696969"/>
<path d="M313.47 97.37C313.47 101.877 312.777 106.21 311.39 110.37C310.003 114.53 307.967 118.213 305.28 121.42C302.68 124.54 299.473 127.053 295.66 128.96C291.847 130.867 287.513 131.82 282.66 131.82C278.327 131.82 274.21 130.953 270.31 129.22C266.497 127.4 263.55 124.843 261.47 121.55H261.21V130H241.58V31.72H262.9V72.15H263.16C264.98 69.9833 267.537 67.99 270.83 66.17C274.123 64.35 278.153 63.44 282.92 63.44C287.6 63.44 291.803 64.35 295.53 66.17C299.343 67.99 302.55 70.46 305.15 73.58C307.837 76.7 309.873 80.34 311.26 84.5C312.733 88.5733 313.47 92.8633 313.47 97.37ZM292.93 97.37C292.93 95.29 292.583 93.2533 291.89 91.26C291.283 89.2667 290.33 87.5333 289.03 86.06C287.73 84.5 286.127 83.2433 284.22 82.29C282.313 81.3367 280.103 80.86 277.59 80.86C275.163 80.86 272.997 81.3367 271.09 82.29C269.183 83.2433 267.537 84.5 266.15 86.06C264.85 87.62 263.81 89.3967 263.03 91.39C262.337 93.3833 261.99 95.42 261.99 97.5C261.99 99.58 262.337 101.617 263.03 103.61C263.81 105.603 264.85 107.38 266.15 108.94C267.537 110.5 269.183 111.757 271.09 112.71C272.997 113.663 275.163 114.14 277.59 114.14C280.103 114.14 282.313 113.663 284.22 112.71C286.127 111.757 287.73 110.5 289.03 108.94C290.33 107.38 291.283 105.603 291.89 103.61C292.583 101.53 292.93 99.45 292.93 97.37ZM350.153 44.59C350.153 46.2367 349.807 47.7967 349.113 49.27C348.507 50.6567 347.64 51.87 346.513 52.91C345.473 53.95 344.173 54.7733 342.613 55.38C341.14 55.9867 339.58 56.29 337.933 56.29C334.467 56.29 331.563 55.1633 329.223 52.91C326.883 50.57 325.713 47.7967 325.713 44.59C325.713 43.03 326.017 41.5567 326.623 40.17C327.23 38.6967 328.097 37.44 329.223 36.4C330.35 35.36 331.65 34.5367 333.123 33.93C334.597 33.2367 336.2 32.89 337.933 32.89C339.58 32.89 341.14 33.1933 342.613 33.8C344.173 34.4067 345.473 35.23 346.513 36.27C347.64 37.31 348.507 38.5667 349.113 40.04C349.807 41.4267 350.153 42.9433 350.153 44.59ZM327.273 130V65.26H348.593V130H327.273ZM388.62 81.25V105.95C388.62 108.983 389.183 111.28 390.31 112.84C391.523 114.313 393.647 115.05 396.68 115.05C397.72 115.05 398.803 114.963 399.93 114.79C401.143 114.617 402.14 114.357 402.92 114.01L403.18 129.61C401.707 130.13 399.843 130.563 397.59 130.91C395.337 131.343 393.083 131.56 390.83 131.56C386.497 131.56 382.857 131.04 379.91 130C376.963 128.873 374.58 127.313 372.76 125.32C371.027 123.24 369.77 120.813 368.99 118.04C368.21 115.18 367.82 112.017 367.82 108.55V81.25H357.42V65.26H367.69V48.23H388.62V65.26H403.83V81.25H388.62ZM454.019 47.45C453.239 47.19 452.329 46.9733 451.289 46.8C450.249 46.6267 449.209 46.54 448.169 46.54C446.176 46.54 444.573 46.8867 443.359 47.58C442.146 48.2733 441.193 49.2267 440.499 50.44C439.806 51.5667 439.329 52.8667 439.069 54.34C438.809 55.8133 438.679 57.2867 438.679 58.76V65.26H453.109V81.25H438.679V130H417.359V81.25H405.529V65.26H417.359V59.02C417.359 55.0333 417.793 51.2633 418.659 47.71C419.526 44.07 420.999 40.9067 423.079 38.22C425.246 35.4467 428.106 33.28 431.659 31.72C435.299 30.0733 439.806 29.25 445.179 29.25C446.999 29.25 448.776 29.38 450.509 29.64C452.329 29.8133 453.976 30.1167 455.449 30.55L454.019 47.45ZM543.623 130H522.173L509.433 89.7H509.173L496.693 130H475.243L452.883 65.26H475.893L487.073 106.21H487.463L499.033 65.26H520.483L532.443 106.21H532.703L544.013 65.26H566.113L543.623 130ZM623.455 130V121.55H623.195C621.115 124.843 618.125 127.4 614.225 129.22C610.412 130.953 606.338 131.82 602.005 131.82C597.152 131.82 592.818 130.867 589.005 128.96C585.192 127.053 581.942 124.54 579.255 121.42C576.655 118.213 574.662 114.53 573.275 110.37C571.888 106.21 571.195 101.877 571.195 97.37C571.195 92.8633 571.888 88.5733 573.275 84.5C574.748 80.34 576.785 76.7 579.385 73.58C582.072 70.46 585.278 67.99 589.005 66.17C592.818 64.35 597.065 63.44 601.745 63.44C606.512 63.44 610.542 64.35 613.835 66.17C617.128 67.99 619.685 69.9833 621.505 72.15H621.765V31.72H643.085V130H623.455ZM622.675 97.5C622.675 95.42 622.285 93.3833 621.505 91.39C620.812 89.3967 619.772 87.62 618.385 86.06C617.085 84.5 615.482 83.2433 613.575 82.29C611.668 81.3367 609.502 80.86 607.075 80.86C604.562 80.86 602.352 81.3367 600.445 82.29C598.538 83.2433 596.935 84.5 595.635 86.06C594.335 87.5333 593.338 89.2667 592.645 91.26C592.038 93.2533 591.735 95.29 591.735 97.37C591.735 99.45 592.038 101.53 592.645 103.61C593.338 105.603 594.335 107.38 595.635 108.94C596.935 110.5 598.538 111.757 600.445 112.71C602.352 113.663 604.562 114.14 607.075 114.14C609.502 114.14 611.668 113.663 613.575 112.71C615.482 111.757 617.085 110.5 618.385 108.94C619.772 107.38 620.812 105.603 621.505 103.61C622.285 101.617 622.675 99.58 622.675 97.5Z" fill="#696969"/>
</svg>
